<?xml version="1.0" encoding="utf-8"?>
<!-- Generator: Adobe Illustrator 19.0.0, SVG Export Plug-In . SVG Version: 6.00 Build 0)  -->
<svg version="1.1" id="Layer_1" xmlns="http://www.w3.org/2000/svg" xmlns:xlink="http://www.w3.org/1999/xlink" x="0px" y="0px"
	 viewBox="0 0 228 176" style="enable-background:new 0 0 228 176;" xml:space="preserve">
<style type="text/css">
	.st0{fill:none;}
	.st1{font-family:'MyriadPro-Regular';}
	.st2{font-size:12px;}
	.st3{fill:none;stroke:#000000;stroke-miterlimit:10;}
	.st4{fill:#C7B299;}
	.st5{fill:none;stroke:#009245;stroke-miterlimit:10;}
	.st6{fill:#009245;}
	.st7{fill:none;stroke:#29ABE2;stroke-miterlimit:10;}
	.st8{fill:#29ABE2;}
</style>
<rect id="XMLID_1_" x="74.2" y="148.9" class="st0" width="14.3" height="18.4"/>
<text transform="matrix(1 0 0 1 74.1694 157.4603)" class="st1 st2">w</text>
<text transform="matrix(0.583 0 0 0.583 83.0015 161.4564)" class="st1 st2">2</text>
<rect id="XMLID_5_" x="22.9" y="148.9" class="st0" width="14.3" height="18.4"/>
<text transform="matrix(1 0 0 1 22.8569 157.4603)" class="st1 st2">w</text>
<text transform="matrix(0.583 0 0 0.583 31.689 161.4564)" class="st1 st2">1</text>
<rect id="XMLID_7_" x="125.5" y="148.9" class="st0" width="14.3" height="18.4"/>
<text transform="matrix(1 0 0 1 125.4819 157.4603)" class="st1 st2">w</text>
<text transform="matrix(0.583 0 0 0.583 134.314 161.4564)" class="st1 st2">3</text>
<rect id="XMLID_9_" x="191.2" y="148.9" class="st0" width="14.3" height="18.4"/>
<text transform="matrix(1 0 0 1 191.1564 157.4603)" class="st1 st2">w</text>
<text transform="matrix(0.583 0 0 0.583 199.9884 161.4564)" class="st1 st2">n</text>
<rect id="XMLID_119_" x="74.2" y="11.9" class="st0" width="14.3" height="18.4"/>
<text transform="matrix(1 0 0 1 74.1694 20.4603)" class="st1 st2">t</text>
<text transform="matrix(0.583 0 0 0.583 78.1416 24.4564)" class="st1 st2">2</text>
<rect id="XMLID_117_" x="22.9" y="11.9" class="st0" width="14.3" height="18.4"/>
<text transform="matrix(1 0 0 1 22.8569 20.4603)" class="st1 st2">t</text>
<text transform="matrix(0.583 0 0 0.583 26.8291 24.4564)" class="st1 st2">1</text>
<rect id="XMLID_114_" x="125.5" y="11.9" class="st0" width="14.3" height="18.4"/>
<text transform="matrix(1 0 0 1 125.4819 20.4603)" class="st1 st2">t</text>
<text transform="matrix(0.583 0 0 0.583 129.4541 24.4564)" class="st1 st2">3</text>
<rect id="XMLID_85_" x="191.2" y="11.9" class="st0" width="14.3" height="18.4"/>
<text transform="matrix(1 0 0 1 191.1564 20.4603)" class="st1 st2">t</text>
<text transform="matrix(0.583 0 0 0.583 195.1286 24.4564)" class="st1 st2">n</text>
<g id="XMLID_13_">
	<path id="XMLID_3_" class="st3" d="M42.3,140H17.7c-5.3,0-9.7-4.3-9.7-9.7v0c0-5.3,4.3-9.7,9.7-9.7h24.7c5.3,0,9.7,4.3,9.7,9.7v0
		C52,135.7,47.7,140,42.3,140z"/>
	<g id="XMLID_11_">
		<circle id="XMLID_10_" class="st4" cx="21.8" cy="130.3" r="6.4"/>
		<circle id="XMLID_12_" class="st4" cx="38.8" cy="130.3" r="6.4"/>
	</g>
</g>
<g id="XMLID_15_">
	<path id="XMLID_19_" class="st3" d="M93.6,140H69c-5.3,0-9.7-4.3-9.7-9.7v0c0-5.3,4.3-9.7,9.7-9.7h24.7c5.3,0,9.7,4.3,9.7,9.7v0
		C103.3,135.7,99,140,93.6,140z"/>
	<g id="XMLID_16_">
		<circle id="XMLID_18_" class="st4" cx="73.1" cy="130.3" r="6.4"/>
		<circle id="XMLID_17_" class="st4" cx="90.1" cy="130.3" r="6.4"/>
	</g>
</g>
<g id="XMLID_20_">
	<path id="XMLID_24_" class="st3" d="M145,140h-24.7c-5.3,0-9.7-4.3-9.7-9.7v0c0-5.3,4.3-9.7,9.7-9.7H145c5.3,0,9.7,4.3,9.7,9.7v0
		C154.6,135.7,150.3,140,145,140z"/>
	<g id="XMLID_21_">
		<circle id="XMLID_23_" class="st4" cx="124.3" cy="130.3" r="6.4"/>
		<circle id="XMLID_22_" class="st4" cx="141.3" cy="130.3" r="6.4"/>
	</g>
</g>
<g id="XMLID_25_">
	<path id="XMLID_29_" class="st3" d="M210.6,140H186c-5.3,0-9.7-4.3-9.7-9.7v0c0-5.3,4.3-9.7,9.7-9.7h24.7c5.3,0,9.7,4.3,9.7,9.7v0
		C220.3,135.7,215.9,140,210.6,140z"/>
	<g id="XMLID_26_">
		<circle id="XMLID_28_" class="st4" cx="190" cy="130.3" r="6.4"/>
		<circle id="XMLID_27_" class="st4" cx="207" cy="130.3" r="6.4"/>
	</g>
</g>
<rect id="XMLID_14_" x="13.5" y="67.3" class="st3" width="33" height="20.3"/>
<rect id="XMLID_31_" x="64.8" y="67.3" class="st3" width="33" height="20.3"/>
<rect id="XMLID_32_" x="116.1" y="67.3" class="st3" width="33" height="20.3"/>
<rect id="XMLID_33_" x="181.8" y="67.3" class="st3" width="33" height="20.3"/>
<g id="XMLID_30_">
	<g id="XMLID_159_">
		<line id="XMLID_162_" class="st3" x1="30.5" y1="120.3" x2="30.5" y2="93.3"/>
		<g id="XMLID_160_">
			<path id="XMLID_161_" d="M30.3,87.3c1.1,2.8,2.9,6.4,4.8,8.5l-4.8-1.7l-4.8,1.7C27.5,93.7,29.3,90.2,30.3,87.3z"/>
		</g>
	</g>
</g>
<g id="XMLID_35_">
	<g id="XMLID_154_">
		<line id="XMLID_157_" class="st3" x1="81.5" y1="120.3" x2="81.5" y2="93.3"/>
		<g id="XMLID_155_">
			<path id="XMLID_156_" d="M81.3,87.3c1.1,2.8,2.9,6.4,4.8,8.5l-4.8-1.7l-4.8,1.7C78.5,93.7,80.3,90.2,81.3,87.3z"/>
		</g>
	</g>
</g>
<g id="XMLID_36_">
	<g id="XMLID_149_">
		<line id="XMLID_152_" class="st3" x1="132.5" y1="120.3" x2="132.5" y2="93.3"/>
		<g id="XMLID_150_">
			<path id="XMLID_151_" d="M132.3,87.3c1.1,2.8,2.9,6.4,4.8,8.5l-4.8-1.7l-4.8,1.7C129.5,93.7,131.3,90.2,132.3,87.3z"/>
		</g>
	</g>
</g>
<g id="XMLID_37_">
	<g id="XMLID_144_">
		<line id="XMLID_147_" class="st3" x1="198.5" y1="120.3" x2="198.5" y2="93.3"/>
		<g id="XMLID_145_">
			<path id="XMLID_146_" d="M198.3,87.3c1.1,2.8,2.9,6.4,4.8,8.5l-4.8-1.7l-4.8,1.7C195.4,93.7,197.2,90.2,198.3,87.3z"/>
		</g>
	</g>
</g>
<g id="XMLID_128_">
	<g id="XMLID_139_">
		<line id="XMLID_142_" class="st3" x1="30.5" y1="67.3" x2="30.5" y2="40.3"/>
		<g id="XMLID_140_">
			<path id="XMLID_141_" d="M30.3,34.3c1.1,2.8,2.9,6.4,4.8,8.5l-4.8-1.7l-4.8,1.7C27.5,40.7,29.3,37.2,30.3,34.3z"/>
		</g>
	</g>
</g>
<g id="XMLID_122_">
	<g id="XMLID_134_">
		<line id="XMLID_137_" class="st3" x1="81.5" y1="67.3" x2="81.5" y2="40.3"/>
		<g id="XMLID_135_">
			<path id="XMLID_136_" d="M81.3,34.3c1.1,2.8,2.9,6.4,4.8,8.5l-4.8-1.7l-4.8,1.7C78.5,40.7,80.3,37.2,81.3,34.3z"/>
		</g>
	</g>
</g>
<g id="XMLID_116_">
	<g id="XMLID_109_">
		<line id="XMLID_112_" class="st3" x1="132.5" y1="67.3" x2="132.5" y2="40.3"/>
		<g id="XMLID_110_">
			<path id="XMLID_111_" d="M132.3,34.3c1.1,2.8,2.9,6.4,4.8,8.5l-4.8-1.7l-4.8,1.7C129.5,40.7,131.3,37.2,132.3,34.3z"/>
		</g>
	</g>
</g>
<g id="XMLID_72_">
	<g id="XMLID_104_">
		<line id="XMLID_107_" class="st3" x1="198.5" y1="67.3" x2="198.5" y2="40.3"/>
		<g id="XMLID_105_">
			<path id="XMLID_106_" d="M198.3,34.3c1.1,2.8,2.9,6.4,4.8,8.5l-4.8-1.7l-4.8,1.7C195.4,40.7,197.2,37.2,198.3,34.3z"/>
		</g>
	</g>
</g>
<g id="XMLID_34_">
	<g id="XMLID_98_">
		<line id="XMLID_102_" class="st5" x1="47" y1="71.8" x2="63" y2="71.8"/>
		<g id="XMLID_99_">
			<path id="XMLID_101_" class="st6" d="M64.8,71.8c-1.1,0.4-2.4,1.1-3.2,1.8l0.6-1.8l-0.6-1.8C62.5,70.8,63.8,71.4,64.8,71.8z"/>
		</g>
	</g>
</g>
<g id="XMLID_39_">
	<g id="XMLID_93_">
		<line id="XMLID_96_" class="st5" x1="98" y1="71.8" x2="114" y2="71.8"/>
		<g id="XMLID_94_">
			<path id="XMLID_95_" class="st6" d="M115.8,71.8c-1.1,0.4-2.4,1.1-3.2,1.8l0.6-1.8l-0.6-1.8C113.5,70.8,114.8,71.4,115.8,71.8z"
				/>
		</g>
	</g>
</g>
<g id="XMLID_40_">
	<g id="XMLID_87_">
		<line id="XMLID_91_" class="st5" x1="149" y1="71.8" x2="154" y2="71.8"/>
		<g id="XMLID_88_">
			<path id="XMLID_90_" class="st6" d="M156.1,71.8c-1.1,0.4-2.4,1.1-3.2,1.8l0.6-1.8l-0.6-1.8C153.7,70.8,155,71.4,156.1,71.8z"/>
		</g>
	</g>
</g>
<g id="XMLID_41_">
	<g id="XMLID_79_">
		<line id="XMLID_82_" class="st5" x1="175" y1="71.8" x2="180" y2="71.8"/>
		<g id="XMLID_80_">
			<path id="XMLID_81_" class="st6" d="M182.1,71.8c-1.1,0.4-2.4,1.1-3.2,1.8l0.6-1.8l-0.6-1.8C179.7,70.8,181,71.4,182.1,71.8z"/>
		</g>
	</g>
</g>
<g id="XMLID_100_">
	<g id="XMLID_73_">
		<line id="XMLID_76_" class="st7" x1="49" y1="81.8" x2="65" y2="81.8"/>
		<g id="XMLID_74_">
			<path id="XMLID_75_" class="st8" d="M46.8,81.8c1.1,0.4,2.4,1.1,3.2,1.8l-0.6-1.8l0.6-1.8C49.2,80.8,47.9,81.4,46.8,81.8z"/>
		</g>
	</g>
</g>
<g id="XMLID_89_">
	<g id="XMLID_67_">
		<line id="XMLID_70_" class="st7" x1="100" y1="81.8" x2="116" y2="81.8"/>
		<g id="XMLID_68_">
			<path id="XMLID_69_" class="st8" d="M97.8,81.8c1.1,0.4,2.4,1.1,3.2,1.8l-0.6-1.8l0.6-1.8C100.2,80.8,98.9,81.4,97.8,81.8z"/>
		</g>
	</g>
</g>
<g id="XMLID_78_">
	<g id="XMLID_61_">
		<line id="XMLID_64_" class="st7" x1="151" y1="81.8" x2="156" y2="81.8"/>
		<g id="XMLID_62_">
			<path id="XMLID_63_" class="st8" d="M149.1,81.8c1.1,0.4,2.4,1.1,3.2,1.8l-0.6-1.8l0.6-1.8C151.5,80.8,150.2,81.4,149.1,81.8z"/>
		</g>
	</g>
</g>
<g id="XMLID_42_">
	<g id="XMLID_56_">
		<line id="XMLID_59_" class="st7" x1="177" y1="81.8" x2="182" y2="81.8"/>
		<g id="XMLID_57_">
			<path id="XMLID_58_" class="st8" d="M175.1,81.8c1.1,0.4,2.4,1.1,3.2,1.8l-0.6-1.8l0.6-1.8C177.5,80.8,176.2,81.4,175.1,81.8z"/>
		</g>
	</g>
</g>
<rect id="XMLID_38_" x="163.1" y="65.1" class="st0" width="4.4" height="10.4"/>
<text id="XMLID_48_" transform="matrix(0.583 0 0 0.583 163.1354 77.599)" class="st1 st2">...</text>
<rect id="XMLID_66_" x="163.1" y="117.4" class="st0" width="4.4" height="10.4"/>
<text id="XMLID_50_" transform="matrix(0.583 0 0 0.583 163.1354 129.9635)" class="st1 st2">...</text>
</svg>
